<svg width="431" height="301" viewBox="0 0 431 301" fill="none" xmlns="http://www.w3.org/2000/svg">
<path d="M391.344 237V197H401.744V201.4C403.166 199.533 404.922 198.111 407.01 197.133C409.099 196.156 411.344 195.667 413.744 195.667C416.588 195.667 419.233 196.356 421.677 197.733C424.166 199.067 426.166 201.045 427.677 203.667C429.233 206.245 430.01 209.378 430.01 213.067V237H418.41V214.6C418.41 212.378 417.744 210.4 416.41 208.667C415.077 206.933 413.166 206.067 410.677 206.067C408.677 206.067 406.877 206.756 405.277 208.133C403.722 209.467 402.944 211.578 402.944 214.467V237H391.344Z" fill="#232323"/>
<path d="M362.944 238.333C358.988 238.333 355.366 237.378 352.077 235.467C348.788 233.556 346.166 230.978 344.21 227.733C342.299 224.489 341.344 220.911 341.344 217C341.344 213.045 342.299 209.467 344.21 206.267C346.166 203.022 348.788 200.445 352.077 198.533C355.366 196.622 358.988 195.667 362.944 195.667C366.944 195.667 370.566 196.622 373.81 198.533C377.099 200.445 379.699 203.022 381.61 206.267C383.566 209.467 384.544 213.045 384.544 217C384.544 220.911 383.566 224.489 381.61 227.733C379.699 230.978 377.099 233.556 373.81 235.467C370.566 237.378 366.944 238.333 362.944 238.333ZM362.944 227.933C364.944 227.933 366.744 227.445 368.344 226.467C369.988 225.489 371.277 224.178 372.21 222.533C373.188 220.845 373.677 219 373.677 217C373.677 214.956 373.188 213.111 372.21 211.467C371.277 209.822 369.988 208.511 368.344 207.533C366.744 206.556 364.944 206.067 362.944 206.067C360.944 206.067 359.122 206.556 357.477 207.533C355.877 208.511 354.588 209.822 353.61 211.467C352.677 213.111 352.21 214.956 352.21 217C352.21 219 352.677 220.845 353.61 222.533C354.588 224.178 355.877 225.489 357.477 226.467C359.122 227.445 360.944 227.933 362.944 227.933Z" fill="#232323"/>
<path d="M322.852 237V197H334.452V237H322.852ZM328.652 191.2C326.919 191.2 325.452 190.6 324.252 189.4C323.052 188.2 322.452 186.733 322.452 185C322.452 183.222 323.052 181.756 324.252 180.6C325.452 179.4 326.919 178.8 328.652 178.8C330.43 178.8 331.896 179.4 333.052 180.6C334.252 181.756 334.852 183.222 334.852 185C334.852 186.733 334.252 188.2 333.052 189.4C331.896 190.6 330.43 191.2 328.652 191.2Z" fill="#232323"/>
<path d="M297.385 237V206.2H289.919V197H297.585V183.667H308.785V197H316.719V206.2H308.985V237H297.385Z" fill="#232323"/>
<path d="M261.498 238.333C258.698 238.333 256.053 237.667 253.565 236.333C251.076 234.956 249.053 232.978 247.498 230.4C245.987 227.778 245.231 224.622 245.231 220.933V197H256.831V219.4C256.831 221.622 257.498 223.6 258.831 225.333C260.209 227.067 262.12 227.933 264.565 227.933C266.565 227.933 268.342 227.222 269.898 225.8C271.498 224.333 272.298 222.244 272.298 219.533V197H283.898V237H273.365V232.8C271.942 234.578 270.187 235.956 268.098 236.933C266.053 237.867 263.853 238.333 261.498 238.333Z" fill="#232323"/>
<path d="M225.54 237V173H237.14V237H225.54Z" fill="#232323"/>
<path d="M197.006 238.333C193.051 238.333 189.428 237.378 186.14 235.467C182.851 233.556 180.228 230.978 178.273 227.733C176.362 224.489 175.406 220.911 175.406 217C175.406 213.045 176.362 209.467 178.273 206.267C180.228 203.022 182.851 200.445 186.14 198.533C189.428 196.622 193.051 195.667 197.006 195.667C201.006 195.667 204.628 196.622 207.873 198.533C211.162 200.445 213.762 203.022 215.673 206.267C217.628 209.467 218.606 213.045 218.606 217C218.606 220.911 217.628 224.489 215.673 227.733C213.762 230.978 211.162 233.556 207.873 235.467C204.628 237.378 201.006 238.333 197.006 238.333ZM197.006 227.933C199.006 227.933 200.806 227.445 202.406 226.467C204.051 225.489 205.34 224.178 206.273 222.533C207.251 220.845 207.74 219 207.74 217C207.74 214.956 207.251 213.111 206.273 211.467C205.34 209.822 204.051 208.511 202.406 207.533C200.806 206.556 199.006 206.067 197.006 206.067C195.006 206.067 193.184 206.556 191.54 207.533C189.94 208.511 188.651 209.822 187.673 211.467C186.74 213.111 186.273 214.956 186.273 217C186.273 219 186.74 220.845 187.673 222.533C188.651 224.178 189.94 225.489 191.54 226.467C193.184 227.445 195.006 227.933 197.006 227.933Z" fill="#232323"/>
<path d="M152.683 239L130.75 197H143.617L149.883 209.867C150.461 210.978 150.994 212.089 151.483 213.2C151.972 214.267 152.461 215.489 152.95 216.867C153.439 215.489 153.928 214.267 154.417 213.2C154.906 212.089 155.439 210.978 156.017 209.867L162.283 197H174.617L152.683 239Z" fill="#232323"/>
<path d="M90.0312 237V197H100.431V201.4C101.853 199.533 103.609 198.111 105.698 197.133C107.787 196.156 110.031 195.667 112.431 195.667C115.276 195.667 117.92 196.356 120.365 197.733C122.853 199.067 124.853 201.045 126.365 203.667C127.92 206.245 128.698 209.378 128.698 213.067V237H117.098V214.6C117.098 212.378 116.431 210.4 115.098 208.667C113.765 206.933 111.853 206.067 109.365 206.067C107.365 206.067 105.565 206.756 103.965 208.133C102.409 209.467 101.631 211.578 101.631 214.467V237H90.0312Z" fill="#232323"/>
<path d="M61.6312 238.333C57.6757 238.333 54.0535 237.378 50.7646 235.467C47.4757 233.556 44.8535 230.978 42.8979 227.733C40.9868 224.489 40.0312 220.911 40.0312 217C40.0312 213.045 40.9868 209.467 42.8979 206.267C44.8535 203.022 47.4757 200.445 50.7646 198.533C54.0535 196.622 57.6757 195.667 61.6312 195.667C65.6312 195.667 69.2535 196.622 72.4979 198.533C75.7868 200.445 78.3868 203.022 80.2979 206.267C82.2535 209.467 83.2313 213.045 83.2313 217C83.2313 220.911 82.2535 224.489 80.2979 227.733C78.3868 230.978 75.7868 233.556 72.4979 235.467C69.2535 237.378 65.6312 238.333 61.6312 238.333ZM61.6312 227.933C63.6312 227.933 65.4312 227.445 67.0312 226.467C68.6757 225.489 69.9646 224.178 70.8979 222.533C71.8757 220.845 72.3646 219 72.3646 217C72.3646 214.956 71.8757 213.111 70.8979 211.467C69.9646 209.822 68.6757 208.511 67.0312 207.533C65.4312 206.556 63.6312 206.067 61.6312 206.067C59.6312 206.067 57.809 206.556 56.1646 207.533C54.5646 208.511 53.2757 209.822 52.2979 211.467C51.3646 213.111 50.8979 214.956 50.8979 217C50.8979 219 51.3646 220.845 52.2979 222.533C53.2757 224.178 54.5646 225.489 56.1646 226.467C57.809 227.445 59.6312 227.933 61.6312 227.933Z" fill="#232323"/>
<path d="M21.6 238.333C17.6444 238.333 14.0222 237.378 10.7333 235.467C7.44444 233.556 4.82222 230.978 2.86667 227.733C0.955556 224.489 0 220.911 0 217C0 213.045 0.955556 209.467 2.86667 206.267C4.82222 203.022 7.44444 200.445 10.7333 198.533C14.0222 196.622 17.6444 195.667 21.6 195.667C24.3556 195.667 26.9556 196.133 29.4 197.067C31.8889 197.956 34.0889 199.289 36 201.067L33 212.867C31.8889 211.045 30.4 209.467 28.5333 208.133C26.7111 206.756 24.5556 206.067 22.0667 206.067C19.9778 206.067 18.1111 206.556 16.4667 207.533C14.8222 208.511 13.5333 209.822 12.6 211.467C11.6667 213.111 11.2 214.956 11.2 217C11.2 219 11.6667 220.845 12.6 222.533C13.5333 224.178 14.8222 225.489 16.4667 226.467C18.1111 227.445 19.9778 227.933 22.0667 227.933C24.5556 227.933 26.7111 227.267 28.5333 225.933C30.4 224.556 31.8889 222.956 33 221.133L36 232.933C34.0889 234.711 31.8889 236.067 29.4 237C26.9556 237.889 24.3556 238.333 21.6 238.333Z" fill="#232323"/>
<path fill-rule="evenodd" clip-rule="evenodd" d="M197.959 106.942C183.112 100.603 172.706 85.8691 172.706 68.7049C172.706 48.6347 186.933 31.8874 205.853 27.9987V51.7327C199.614 54.8304 195.326 61.2669 195.326 68.7049C195.326 79.1639 203.805 87.6426 214.264 87.6426C224.723 87.6426 233.201 79.1639 233.201 68.7049C233.201 60.8879 228.465 54.1771 221.706 51.2855V27.8117C241.106 31.3192 255.821 48.2936 255.821 68.7049C255.821 85.3767 246.004 99.7555 231.835 106.376C235.263 113.463 241.688 124.918 267.226 124.918C268.062 96.6937 267.574 44.9572 267.226 20.1304L221.706 20.1304V0L288 2.89781e-06V145.302C266.293 146.771 225.076 142.545 215.2 116.731C205.134 142.545 163.124 146.771 141 145.302L141 2.89781e-06L206.139 5.04879e-08V20.1304L162.09 20.1304L162.09 124.918C187.437 124.918 194.372 114.056 197.959 106.942Z" fill="#232323"/>
<path d="M336.35 300V288.056L329.017 275H333.656L337.184 281.444C337.424 281.87 337.656 282.306 337.878 282.75C338.1 283.176 338.323 283.685 338.545 284.278C338.785 283.685 339.017 283.176 339.239 282.75C339.461 282.306 339.693 281.87 339.934 281.444L343.489 275H347.795L340.461 288.056V300H336.35Z" fill="#232323"/>
<path d="M294.036 300.5C292.221 300.5 290.517 300.167 288.924 299.5C287.332 298.815 285.934 297.88 284.73 296.694C283.526 295.509 282.582 294.13 281.897 292.556C281.23 290.981 280.897 289.296 280.897 287.5C280.897 285.704 281.23 284.019 281.897 282.444C282.582 280.87 283.526 279.491 284.73 278.306C285.934 277.12 287.332 276.194 288.924 275.528C290.517 274.843 292.221 274.5 294.036 274.5C295.739 274.5 297.341 274.796 298.841 275.389C300.36 275.981 301.702 276.815 302.869 277.889L301.702 282.722C300.943 281.463 299.897 280.435 298.563 279.639C297.248 278.824 295.767 278.417 294.119 278.417C292.452 278.417 290.943 278.824 289.591 279.639C288.258 280.454 287.193 281.546 286.397 282.917C285.619 284.287 285.23 285.815 285.23 287.5C285.23 289.167 285.619 290.694 286.397 292.083C287.193 293.454 288.258 294.546 289.591 295.361C290.943 296.176 292.452 296.583 294.119 296.583C295.767 296.583 297.248 296.176 298.563 295.361C299.897 294.546 300.943 293.519 301.702 292.278L302.869 297.111C301.702 298.167 300.36 299 298.841 299.611C297.341 300.204 295.739 300.5 294.036 300.5Z" fill="#232323"/>
<path d="M251.43 300.833L235.18 283.972V300H231.347V274.167L247.597 291V275H251.43V300.833Z" fill="#232323"/>
<path d="M189.047 300V275H201.88V278.583H193.047V283.167H199.936V286.667H193.047V296.333H201.88V300H189.047Z" fill="#232323"/>
<path d="M150.204 300.5C148.352 300.5 146.621 300.176 145.01 299.528C143.398 298.861 141.982 297.944 140.76 296.778C139.556 295.593 138.611 294.213 137.926 292.639C137.26 291.065 136.926 289.361 136.926 287.528C136.926 285.694 137.26 283.991 137.926 282.417C138.611 280.843 139.556 279.463 140.76 278.278C141.982 277.093 143.389 276.167 144.982 275.5C146.593 274.833 148.324 274.5 150.176 274.5C151.917 274.5 153.547 274.796 155.065 275.389C156.584 275.981 157.926 276.815 159.093 277.889L157.926 282.667C157.148 281.407 156.093 280.38 154.76 279.583C153.426 278.769 151.898 278.361 150.176 278.361C148.473 278.361 146.945 278.769 145.593 279.583C144.241 280.398 143.167 281.5 142.371 282.889C141.574 284.259 141.176 285.806 141.176 287.528C141.176 289.25 141.565 290.806 142.343 292.194C143.139 293.565 144.213 294.657 145.565 295.472C146.936 296.287 148.463 296.694 150.148 296.694C151.037 296.694 151.88 296.593 152.676 296.389C153.473 296.185 154.195 295.898 154.843 295.528V289.833H148.871V286.333H158.648V297.917C157.519 298.75 156.223 299.389 154.76 299.833C153.315 300.278 151.797 300.5 150.204 300.5Z" fill="#232323"/>
<path d="M89.2799 300L100.085 274.139H100.141L110.947 300H106.752L104.363 294.083H95.7243L93.3077 300H89.2799ZM97.0855 290.75H102.974L101.474 287C101.197 286.352 100.937 285.713 100.697 285.083C100.474 284.454 100.252 283.713 100.03 282.861C99.8077 283.713 99.5855 284.454 99.3632 285.083C99.141 285.694 98.891 286.333 98.6132 287L97.0855 290.75Z" fill="#232323"/>
</svg>
