<svg width="546" height="82" viewBox="0 0 546 82" fill="none" xmlns="http://www.w3.org/2000/svg">
<path d="M506.744 72.0001V32.0001H517.144V36.4001C518.566 34.5334 520.322 33.1112 522.41 32.1334C524.499 31.1556 526.744 30.6667 529.144 30.6667C531.988 30.6667 534.633 31.3556 537.077 32.7334C539.566 34.0667 541.566 36.0445 543.077 38.6667C544.633 41.2445 545.41 44.3779 545.41 48.0667V72.0001H533.81V49.6001C533.81 47.3779 533.144 45.4001 531.81 43.6667C530.477 41.9334 528.566 41.0667 526.077 41.0667C524.077 41.0667 522.277 41.7556 520.677 43.1334C519.122 44.4667 518.344 46.5779 518.344 49.4667V72.0001H506.744Z" fill="white"/>
<path d="M478.344 73.3334C474.388 73.3334 470.766 72.3779 467.477 70.4667C464.188 68.5556 461.566 65.9779 459.61 62.7334C457.699 59.489 456.744 55.9112 456.744 52.0001C456.744 48.0445 457.699 44.4667 459.61 41.2667C461.566 38.0223 464.188 35.4445 467.477 33.5334C470.766 31.6223 474.388 30.6667 478.344 30.6667C482.344 30.6667 485.966 31.6223 489.21 33.5334C492.499 35.4445 495.099 38.0223 497.01 41.2667C498.966 44.4667 499.944 48.0445 499.944 52.0001C499.944 55.9112 498.966 59.489 497.01 62.7334C495.099 65.9779 492.499 68.5556 489.21 70.4667C485.966 72.3779 482.344 73.3334 478.344 73.3334ZM478.344 62.9334C480.344 62.9334 482.144 62.4445 483.744 61.4667C485.388 60.489 486.677 59.1779 487.61 57.5334C488.588 55.8445 489.077 54.0001 489.077 52.0001C489.077 49.9556 488.588 48.1112 487.61 46.4667C486.677 44.8223 485.388 43.5112 483.744 42.5334C482.144 41.5556 480.344 41.0667 478.344 41.0667C476.344 41.0667 474.522 41.5556 472.877 42.5334C471.277 43.5112 469.988 44.8223 469.01 46.4667C468.077 48.1112 467.61 49.9556 467.61 52.0001C467.61 54.0001 468.077 55.8445 469.01 57.5334C469.988 59.1779 471.277 60.489 472.877 61.4667C474.522 62.4445 476.344 62.9334 478.344 62.9334Z" fill="white"/>
<path d="M438.252 72V32H449.852V72H438.252ZM444.052 26.2C442.319 26.2 440.852 25.6 439.652 24.4C438.452 23.2 437.852 21.7334 437.852 20C437.852 18.2223 438.452 16.7556 439.652 15.6C440.852 14.4 442.319 13.8 444.052 13.8C445.83 13.8 447.297 14.4 448.452 15.6C449.652 16.7556 450.252 18.2223 450.252 20C450.252 21.7334 449.652 23.2 448.452 24.4C447.297 25.6 445.83 26.2 444.052 26.2Z" fill="white"/>
<path d="M412.785 72.0001V41.2001H405.319V32.0001H412.985V18.6667H424.185V32.0001H432.119V41.2001H424.385V72.0001H412.785Z" fill="white"/>
<path d="M376.898 73.3333C374.098 73.3333 371.453 72.6667 368.965 71.3333C366.476 69.9556 364.453 67.9778 362.898 65.4C361.387 62.7778 360.631 59.6222 360.631 55.9333V32H372.231V54.4C372.231 56.6222 372.898 58.6 374.231 60.3333C375.609 62.0667 377.52 62.9333 379.965 62.9333C381.965 62.9333 383.742 62.2222 385.298 60.8C386.898 59.3333 387.698 57.2444 387.698 54.5333V32H399.298V72H388.765V67.8C387.342 69.5778 385.587 70.9556 383.498 71.9333C381.453 72.8667 379.253 73.3333 376.898 73.3333Z" fill="white"/>
<path d="M340.94 72V8H352.54V72H340.94Z" fill="white"/>
<path d="M312.406 73.3334C308.451 73.3334 304.829 72.3779 301.54 70.4667C298.251 68.5556 295.628 65.9779 293.673 62.7334C291.762 59.489 290.806 55.9112 290.806 52.0001C290.806 48.0445 291.762 44.4667 293.673 41.2667C295.628 38.0223 298.251 35.4445 301.54 33.5334C304.829 31.6223 308.451 30.6667 312.406 30.6667C316.406 30.6667 320.029 31.6223 323.273 33.5334C326.562 35.4445 329.162 38.0223 331.073 41.2667C333.029 44.4667 334.006 48.0445 334.006 52.0001C334.006 55.9112 333.029 59.489 331.073 62.7334C329.162 65.9779 326.562 68.5556 323.273 70.4667C320.029 72.3779 316.406 73.3334 312.406 73.3334ZM312.406 62.9334C314.406 62.9334 316.206 62.4445 317.806 61.4667C319.451 60.489 320.74 59.1779 321.673 57.5334C322.651 55.8445 323.14 54.0001 323.14 52.0001C323.14 49.9556 322.651 48.1112 321.673 46.4667C320.74 44.8223 319.451 43.5112 317.806 42.5334C316.206 41.5556 314.406 41.0667 312.406 41.0667C310.406 41.0667 308.584 41.5556 306.94 42.5334C305.34 43.5112 304.051 44.8223 303.073 46.4667C302.14 48.1112 301.673 49.9556 301.673 52.0001C301.673 54.0001 302.14 55.8445 303.073 57.5334C304.051 59.1779 305.34 60.489 306.94 61.4667C308.584 62.4445 310.406 62.9334 312.406 62.9334Z" fill="white"/>
<path d="M268.083 74L246.15 32H259.017L265.283 44.8667C265.861 45.9778 266.394 47.0889 266.883 48.2C267.372 49.2667 267.861 50.4889 268.35 51.8667C268.839 50.4889 269.328 49.2667 269.817 48.2C270.306 47.0889 270.839 45.9778 271.417 44.8667L277.683 32H290.017L268.083 74Z" fill="white"/>
<path d="M205.431 72.0001V32.0001H215.831V36.4001C217.253 34.5334 219.009 33.1112 221.098 32.1334C223.187 31.1556 225.431 30.6667 227.831 30.6667C230.676 30.6667 233.32 31.3556 235.765 32.7334C238.254 34.0667 240.254 36.0445 241.765 38.6667C243.32 41.2445 244.098 44.3779 244.098 48.0667V72.0001H232.498V49.6001C232.498 47.3779 231.831 45.4001 230.498 43.6667C229.165 41.9334 227.253 41.0667 224.765 41.0667C222.765 41.0667 220.965 41.7556 219.365 43.1334C217.809 44.4667 217.031 46.5779 217.031 49.4667V72.0001H205.431Z" fill="white"/>
<path d="M177.031 73.3334C173.076 73.3334 169.453 72.3779 166.165 70.4667C162.876 68.5556 160.253 65.9779 158.298 62.7334C156.387 59.489 155.431 55.9112 155.431 52.0001C155.431 48.0445 156.387 44.4667 158.298 41.2667C160.253 38.0223 162.876 35.4445 166.165 33.5334C169.453 31.6223 173.076 30.6667 177.031 30.6667C181.031 30.6667 184.653 31.6223 187.898 33.5334C191.187 35.4445 193.787 38.0223 195.698 41.2667C197.653 44.4667 198.631 48.0445 198.631 52.0001C198.631 55.9112 197.653 59.489 195.698 62.7334C193.787 65.9779 191.187 68.5556 187.898 70.4667C184.653 72.3779 181.031 73.3334 177.031 73.3334ZM177.031 62.9334C179.031 62.9334 180.831 62.4445 182.431 61.4667C184.076 60.489 185.365 59.1779 186.298 57.5334C187.276 55.8445 187.765 54.0001 187.765 52.0001C187.765 49.9556 187.276 48.1112 186.298 46.4667C185.365 44.8223 184.076 43.5112 182.431 42.5334C180.831 41.5556 179.031 41.0667 177.031 41.0667C175.031 41.0667 173.209 41.5556 171.565 42.5334C169.965 43.5112 168.676 44.8223 167.698 46.4667C166.765 48.1112 166.298 49.9556 166.298 52.0001C166.298 54.0001 166.765 55.8445 167.698 57.5334C168.676 59.1779 169.965 60.489 171.565 61.4667C173.209 62.4445 175.031 62.9334 177.031 62.9334Z" fill="white"/>
<path d="M137 73.3334C133.044 73.3334 129.422 72.3779 126.133 70.4667C122.844 68.5556 120.222 65.9779 118.267 62.7334C116.356 59.489 115.4 55.9112 115.4 52.0001C115.4 48.0445 116.356 44.4667 118.267 41.2667C120.222 38.0223 122.844 35.4445 126.133 33.5334C129.422 31.6223 133.044 30.6667 137 30.6667C139.756 30.6667 142.356 31.1334 144.8 32.0667C147.289 32.9556 149.489 34.289 151.4 36.0667L148.4 47.8667C147.289 46.0445 145.8 44.4667 143.933 43.1334C142.111 41.7556 139.956 41.0667 137.467 41.0667C135.378 41.0667 133.511 41.5556 131.867 42.5334C130.222 43.5112 128.933 44.8223 128 46.4667C127.067 48.1112 126.6 49.9556 126.6 52.0001C126.6 54.0001 127.067 55.8445 128 57.5334C128.933 59.1779 130.222 60.489 131.867 61.4667C133.511 62.4445 135.378 62.9334 137.467 62.9334C139.956 62.9334 142.111 62.2667 143.933 60.9334C145.8 59.5556 147.289 57.9556 148.4 56.1334L151.4 67.9334C149.489 69.7112 147.289 71.0667 144.8 72.0001C142.356 72.889 139.756 73.3334 137 73.3334Z" fill="white"/>
<path fill-rule="evenodd" clip-rule="evenodd" d="M50.67 59.3389C58.5738 55.6459 64.05 47.625 64.05 38.3251C64.05 26.9392 55.8416 17.4705 45.0196 15.5139V28.6082C48.7901 30.2211 51.4321 33.9646 51.4321 38.3251C51.4321 44.1594 46.7024 48.889 40.8682 48.889C35.0339 48.889 30.3043 44.1594 30.3043 38.3251C30.3043 34.176 32.6963 30.5856 36.1765 28.8576V15.6182C25.6227 17.7874 17.6863 27.1294 17.6863 38.3251C17.6863 47.8997 23.4908 56.1186 31.7729 59.6547C29.7722 63.6228 25.9035 69.6821 11.7647 69.6821L11.7647 11.2292L36.3361 11.2292V0H0L3.54293e-06 81.0528C12.3412 81.8721 35.7756 79.5148 41.3905 65.1151C46.8994 79.5148 69.8916 81.8721 82 81.0528V0H45.0196V11.2292L70.4118 11.2292C70.606 25.0782 70.8779 53.938 70.4118 69.6821C56.1662 69.6821 52.5821 63.2921 50.67 59.3389Z" fill="white"/>
</svg>
