<svg width="4892" height="1326" viewBox="0 0 4892 1326" fill="none" xmlns="http://www.w3.org/2000/svg">
<path d="M1544.26 942.038V378.124H1818.79V922.286C1818.79 986.41 1825.38 1030.78 1887.83 1030.78C1940.42 1030.78 1974.98 986.41 1974.98 925.558V378.124H2246.24V922.286C2246.24 981.462 2249.51 1030.78 2312 1030.78C2400.78 1030.78 2422.13 894.313 2422.13 759.52C2422.13 637.855 2395.84 489.893 2367.86 378.124H2637.49C2668.73 486.621 2691.76 632.947 2691.76 754.612C2691.76 1058.76 2568.46 1239.6 2321.86 1239.6C2200.19 1239.6 2137.74 1191.91 2096.64 1126.15C2029.24 1206.72 1945.41 1239.6 1841.82 1239.6C1651.12 1239.6 1544.26 1142.59 1544.26 942.038Z" fill="black"/>
<path d="M2824.92 942.038V378.124H3099.45V905.846C3099.45 981.462 3109.31 1032.42 3180.02 1032.42C3235.92 1032.42 3278.66 978.15 3278.66 920.61V378.124H3553.19V1058.76L3571.27 1218.21H3339.47L3326.3 1137.64H3319.72C3268.76 1206.68 3191.47 1239.56 3104.36 1239.56C2916.93 1239.56 2824.88 1140.92 2824.88 941.998L2824.92 942.038Z" fill="black"/>
<path d="M3686.39 835.177C3686.39 545.838 3837.62 351.828 4131.91 351.828C4189.45 351.828 4317.7 366.632 4449.22 417.588V1040.68L4467.3 1218.25H4235.5L4222.33 1141L4214.11 1139.36C4169.74 1203.48 4102.3 1244.58 4008.61 1244.58C3755.42 1244.58 3686.39 1047.3 3686.39 835.217V835.177ZM4177.96 953.53V557.33C4158.25 549.11 4131.91 544.162 4102.34 544.162C3993.84 544.162 3957.65 674.047 3957.65 815.425C3957.65 941.998 3980.68 1047.22 4076.01 1047.22C4140.13 1047.22 4177.92 1001.17 4177.92 953.53H4177.96Z" fill="black"/>
<path d="M4600.46 136.469C4600.46 62.4886 4656.36 0 4745.14 0C4833.93 0 4891.47 62.4886 4891.47 136.469C4891.47 210.45 4832.29 272.939 4745.14 272.939C4658 272.939 4600.46 215.398 4600.46 136.469ZM4884.89 378.124V1218.21H4608.68V378.124H4884.89Z" fill="black"/>
<path d="M147.084 1061.67C369.066 839.806 481.354 596.714 501.665 280.68C504.618 234.911 507.57 186.548 509.486 138.704C221.304 180.762 0 428.881 0 728.715C0 862.91 44.3326 986.73 119.111 1086.37C131.801 1075.63 141.856 1066.86 147.084 1061.63V1061.67Z" fill="black"/>
<path d="M706.568 526.564C776.878 709.282 877.035 840.643 1033.26 959.715C1045.83 969.292 1082.06 991.678 1119.61 1015.1C1166.21 930.107 1192.75 832.543 1192.75 728.755C1192.75 423.015 962.668 171.026 666.186 136.469C665.867 250.074 670.496 432.832 706.568 526.564Z" fill="black"/>
<path d="M803.893 955.286C720.175 791.602 658.365 492.686 627.041 493.604C592.046 757.844 433.669 975.477 220.546 1126.51C213.004 1131.86 197.681 1141.95 178.488 1154.12C286.107 1259.83 433.59 1325.07 596.395 1325.07C747.429 1325.07 885.335 1268.89 990.441 1176.31C922.685 1124 844.035 1033.7 803.932 955.246L803.893 955.286Z" fill="black"/>
</svg>
