<svg width="733" height="732" viewBox="0 0 733 732" fill="none" xmlns="http://www.w3.org/2000/svg">
<path d="M90.3623 569.246C226.739 432.943 295.725 283.597 308.203 89.4383C310.017 61.3195 311.831 31.6074 313.008 2.21387C135.96 28.0527 -3.05176e-05 180.487 -3.05176e-05 364.693C-3.05176e-05 447.137 27.2361 523.207 73.1773 584.421C80.9731 577.826 87.1508 572.433 90.3623 569.221V569.246Z" fill="white"/>
<path d="M434.087 240.5C477.283 352.754 538.815 433.457 634.792 506.61C642.514 512.494 664.773 526.247 687.842 540.637C716.476 488.42 732.778 428.481 732.778 364.717C732.778 176.883 591.425 22.0708 409.278 0.84082C409.082 70.6351 411.926 182.914 434.087 240.5Z" fill="white"/>
<path d="M493.879 503.889C442.447 403.328 404.473 219.686 385.229 220.25C363.729 382.589 266.429 516.294 135.494 609.083C130.861 612.368 121.447 618.57 109.656 626.047C175.773 690.988 266.38 731.07 366.401 731.07C459.191 731.07 543.915 696.553 608.487 639.678C566.861 607.539 518.541 552.061 493.904 503.864L493.879 503.889Z" fill="white"/>
</svg>
