<svg width="274" height="272" viewBox="0 0 274 272" fill="none" xmlns="http://www.w3.org/2000/svg">
<path fill-rule="evenodd" clip-rule="evenodd" d="M106.168 199.962C78.4936 188.146 59.0981 160.683 59.0981 128.689C59.0981 91.2796 85.6174 60.0637 120.882 52.8153V97.0542C109.253 102.828 101.261 114.825 101.261 128.689C101.261 148.184 117.064 163.988 136.559 163.988C156.054 163.988 171.858 148.184 171.858 128.689C171.858 114.119 163.03 101.61 150.431 96.2207V52.4666C186.593 59.0046 214.021 90.6439 214.021 128.689C214.021 159.765 195.722 186.566 169.312 198.906C175.701 212.116 187.678 233.467 235.278 233.467C236.836 180.859 235.927 84.4249 235.278 38.1492L150.431 38.1492V0.627197L274 0.627203V271.462C233.54 274.2 156.713 266.323 138.305 218.207C119.543 266.323 41.2378 274.2 1.34177e-05 271.462L0 0.627203L121.416 0.627197V38.1492L39.3114 38.1492L39.3114 233.467C86.5553 233.467 99.4825 213.221 106.168 199.962Z" fill="black"/>
</svg>
