<svg width="1193" height="1190" viewBox="0 0 1193 1190" fill="none" xmlns="http://www.w3.org/2000/svg">
<path d="M147.084 925.668C369.066 703.806 481.354 460.714 501.665 144.68C504.618 98.911 507.57 50.5482 509.486 2.7041C221.304 44.7622 0 292.881 0 592.715C0 726.91 44.3326 850.73 119.111 950.368C131.801 939.634 141.856 930.855 147.084 925.628V925.668Z" fill="black"/>
<path d="M706.568 390.564C776.878 573.282 877.035 704.643 1033.26 823.715C1045.83 833.292 1082.06 855.678 1119.61 879.101C1166.21 794.107 1192.75 696.543 1192.75 592.755C1192.75 287.015 962.668 35.0258 666.186 0.469482C665.867 114.074 670.496 296.832 706.568 390.564Z" fill="black"/>
<path d="M803.893 819.286C720.175 655.602 658.365 356.686 627.041 357.604C592.046 621.844 433.669 839.477 220.546 990.511C213.004 995.858 197.681 1005.95 178.488 1018.12C286.107 1123.83 433.59 1189.07 596.395 1189.07C747.429 1189.07 885.335 1132.89 990.441 1040.31C922.685 987.997 844.035 897.696 803.932 819.246L803.893 819.286Z" fill="black"/>
</svg>
